<?xml version="1.0" standalone="no"?>
<!DOCTYPE svg PUBLIC "-//W3C//DTD SVG 1.1//EN" "http://www.w3.org/Graphics/SVG/1.1/DTD/svg11.dtd" >
<svg xmlns="http://www.w3.org/2000/svg" xmlns:xlink="http://www.w3.org/1999/xlink" version="1.1">
<metadata>
Created by FontForge 20161013 at Sat Mar 20 21:07:04 2010
 By ,,,
Generated in 2010 by FontLab Studio. Copyright info pending.
</metadata>
<defs>
<font id="SuperMarioBrosWii" horiz-adv-x="370" >
  <font-face 
    font-family="SuperMarioBrosWii"
    font-weight="400"
    font-stretch="normal"
    units-per-em="1000"
    panose-1="2 0 0 0 0 0 0 0 0 0"
    ascent="750"
    descent="-250"
    x-height="700"
    cap-height="706"
    bbox="-48 -250 787 750"
    underline-thickness="50"
    underline-position="-200"
    unicode-range="U+0020-201D"
  />
<missing-glyph horiz-adv-x="500" 
 />
    <glyph glyph-name=".notdef" horiz-adv-x="500" 
 />
    <glyph glyph-name=".null" horiz-adv-x="0" 
 />
    <glyph glyph-name="nonmarkingreturn" horiz-adv-x="333" 
 />
    <glyph glyph-name="space" unicode=" " horiz-adv-x="130" 
 />
    <glyph glyph-name="exclam" unicode="!" horiz-adv-x="189" 
d="M162 0h-135v148h135v-148zM162 706v-513h-135v513h135z" />
    <glyph glyph-name="quotedbl" unicode="&#x22;" horiz-adv-x="333" 
d="M198 441v271h120v-271h-120zM15 441v271h120v-271h-120z" />
    <glyph glyph-name="quotesingle" unicode="'" horiz-adv-x="222" 
d="M51 441v271h120v-271h-120z" />
    <glyph glyph-name="parenleft" unicode="(" horiz-adv-x="296" 
d="M281 -62h-153q-114 174 -114 390q0 110 26.5 204t85.5 194h152q-119 -167 -119 -394q0 -103 31.5 -210t90.5 -184z" />
    <glyph glyph-name="parenright" unicode=")" horiz-adv-x="296" 
d="M168 -62h-153q59 77 90.5 184t31.5 210q0 227 -119 394h152q59 -100 85.5 -194t26.5 -204q0 -216 -114 -390z" />
    <glyph glyph-name="asterisk" unicode="*" horiz-adv-x="464" 
d="M190 608v104h83v-104l97 38l28 -80l-103 -34l72 -88l-67 -52l-69 93l-65 -93l-69 51l69 88l-101 29l28 82z" />
    <glyph glyph-name="plus" unicode="+" horiz-adv-x="600" 
d="M232 428v186h136v-186h186v-136h-186v-186h-136v186h-186v136h186z" />
    <glyph glyph-name="comma" unicode="," horiz-adv-x="185" 
d="M25 139h135v-139l-94 -69h-13l19 69h-47v139z" />
    <glyph glyph-name="hyphen" unicode="-" horiz-adv-x="259" 
d="M18 291v118h222v-118h-222z" />
    <glyph glyph-name="period" unicode="." horiz-adv-x="185" 
d="M25 148h135v-148h-135v148z" />
    <glyph glyph-name="slash" unicode="/" horiz-adv-x="259" 
d="M179 726h78l-177 -740h-78z" />
    <glyph glyph-name="colon" unicode=":" horiz-adv-x="184" 
d="M25 148h135v-148h-135v148zM25 500h135v-148h-135v148z" />
    <glyph glyph-name="semicolon" unicode=";" horiz-adv-x="186" 
d="M25 139h135v-139l-94 -69h-13l19 69h-47v139zM25 499h135v-148h-135v148z" />
    <glyph glyph-name="less" unicode="&#x3c;" horiz-adv-x="600" 
d="M525 156v-102l-450 190v84l450 190v-102l-312 -130z" />
    <glyph glyph-name="equal" unicode="=" horiz-adv-x="600" 
d="M554 338h-508v136h508v-136zM554 98h-508v136h508v-136z" />
    <glyph glyph-name="greater" unicode="&#x3e;" horiz-adv-x="600" 
d="M75 54v102l312 130l-312 130v102l450 -190v-84z" />
    <glyph glyph-name="question" unicode="?" horiz-adv-x="365" 
d="M215 417v146h-65v-115h-128v108q0 66 47 113t113 47t113 -47t47 -113v-176q0 -15 -3 -28t-8.5 -22.5t-12.5 -17t-14.5 -12t-15.5 -8t-15 -5.5t-12.5 -3t-8.5 -2h-4v-89h-135v224h102zM248 0h-135v148h135v-148z" />
    <glyph glyph-name="A" unicode="A" 
d="M345 557v-556h-129v144h-66v-144h-125v556q0 66 46.5 113t113.5 47q66 0 113 -47t47 -113zM217 284v282h-68v-282h68z" />
    <glyph glyph-name="B" unicode="B" horiz-adv-x="364" 
d="M180 0v144h34v138h-34v140h34v143h-64v-565h-125v706h156q46 0 79 -13.5t47.5 -32.5t22.5 -38t8 -32l1 -14v-157q0 -17 -9.5 -34.5t-19.5 -26.5l-9 -8q17 -8 26.5 -23.5t10.5 -26.5l2 -11v-1v-154q0 -5 -0.5 -14.5t-8.5 -32.5t-23 -40.5t-48.5 -32t-79.5 -14.5z" />
    <glyph glyph-name="C" unicode="C" horiz-adv-x="368" 
d="M217 139v143h127v-135q0 -67 -46.5 -113.5t-113.5 -46.5q-66 0 -112.5 46.5t-46.5 113.5v406q0 66 46.5 113t112.5 47q65 0 111.5 -45t48.5 -109v-138h-127v139h-65v-421h65z" />
    <glyph glyph-name="D" unicode="D" horiz-adv-x="365" 
d="M339 574l1 -439q0 -5 -0.5 -14.5t-8 -32.5t-22 -40.5t-48 -32t-80.5 -14.5h-156v706h175q39 0 68 -13.5t42 -33.5t20.5 -39.5t7.5 -32.5zM213 145v421h-63v-422z" />
    <glyph glyph-name="E" unicode="E" horiz-adv-x="371" 
d="M345 258v-111q0 -66 -46.5 -113t-113.5 -47q-66 0 -113 47t-47 113v406q0 66 47 113t113 47q65 0 111.5 -45t48.5 -109v-114h-127v115h-65v-143h96v-129h-96v-148h65v118h127z" />
    <glyph glyph-name="F" unicode="F" horiz-adv-x="359" 
d="M152 563v-143h96v-129h-96v-291h-127v556q0 66 46.5 113t113.5 47q64 0 111 -45t49 -109v-114h-128v115h-65z" />
    <glyph glyph-name="G" unicode="G" 
d="M345 414v-267q0 -66 -47 -113t-113 -47t-113 47t-47 113v406q0 66 47 113t113 47q64 0 111 -45t49 -109v-114h-128v115h-65v-420h65v145h-32v129h32h78h50z" />
    <glyph glyph-name="H" unicode="H" 
d="M25 704h124v-286h68v286h128v-703h-129v279h-66v-279h-125v703z" />
    <glyph glyph-name="I" unicode="I" horiz-adv-x="185" 
d="M25 706h135v-148h-135v148zM25 0v513h135v-513h-135z" />
    <glyph glyph-name="J" unicode="J" horiz-adv-x="369" 
d="M216 705h128v-556q0 -66 -47 -113t-113 -47q-67 0 -113.5 47t-46.5 113v136h127v-143h65v563z" />
    <glyph glyph-name="K" unicode="K" horiz-adv-x="364" 
d="M301 352q16 -9 26 -24.5t11 -26.5l2 -11v-1v-289h-127v284h-63v-283h-125v706h125v-284h63v284h125v-287q0 -17 -9 -34t-19 -26z" />
    <glyph glyph-name="L" unicode="L" horiz-adv-x="308" 
d="M289 124v-124h-264v705h135v-581h129z" />
    <glyph glyph-name="M" unicode="M" horiz-adv-x="555" 
d="M526 596q2 -8 4 -50v-546h-125v562h-65v-562h-126v562h-63v-562h-126v546q2 42 4 50q9 46 44.5 82t99.5 36q33 0 59 -12.5t36 -25.5l9 -12h1q3 6 10 14t34 22t60 14q64 0 99.5 -36t44.5 -82z" />
    <glyph glyph-name="N" unicode="N" 
d="M345 556v-556h-128v565h-68v-565h-124v556q0 66 47 113t113 47t113 -47t47 -113z" />
    <glyph glyph-name="O" unicode="O" 
d="M185 713q66 0 113 -47t47 -113v-406q0 -66 -47 -113t-113 -47t-113 47t-47 113v406q0 66 47 113t113 47zM218 140v420h-65v-420h65z" />
    <glyph glyph-name="P" unicode="P" horiz-adv-x="362" 
d="M244 283h-65v139h34v143h-63v-565h-125v706h167q43 0 73.5 -13t44 -31t20.5 -36.5t8 -31.5v-13v-201q0 -27 -9.5 -47t-23.5 -29t-28 -14.5t-23 -5.5z" />
    <glyph glyph-name="Q" unicode="Q" horiz-adv-x="374" 
d="M392 48l-87 -94l-54 50q-30 -15 -66 -15q-66 0 -113 47t-47 113v406q0 66 47 113t113 47t113 -47t47 -113v-406q0 -24 -8 -50zM217 142v420h-64v-420h64z" />
    <glyph glyph-name="R" unicode="R" horiz-adv-x="364" 
d="M25 706h166q43 0 74.5 -13t44.5 -31t20.5 -36.5t7.5 -31.5v-13v-162q0 -17 -9 -34t-19 -25l-9 -9q16 -9 26 -24.5t11 -26.5l2 -11v-289h-127v283h-34v139h34v143h-63v-565h-125v706z" />
    <glyph glyph-name="S" unicode="S" horiz-adv-x="365" 
d="M151 473q0 -20 13 -36.5t25 -23.5t35 -19q63 -32 94 -60q11 -11 17.5 -27.5t6.5 -28.5l1 -11v-120q0 -66 -46.5 -113t-112.5 -47q-67 0 -113.5 47t-46.5 113v134h127v-141h65v98q1 18 -15 32q-22 20 -77 48q-28 13 -46.5 25t-36 39.5t-17.5 62.5v108q0 66 46.5 113
t113.5 47q66 0 112.5 -47t46.5 -113v-133h-127v140h-65v-87z" />
    <glyph glyph-name="T" unicode="T" horiz-adv-x="342" 
d="M326 704v-134h-89v-570h-134v570h-88v134h311z" />
    <glyph glyph-name="U" unicode="U" horiz-adv-x="369" 
d="M25 148v556h127v-565h68v565h124v-556q0 -66 -46.5 -113t-113.5 -47q-66 0 -112.5 47t-46.5 113z" />
    <glyph glyph-name="V" unicode="V" horiz-adv-x="377" 
d="M188 161h2q18 90 24 139q4 31 7 66t3 54l1 20v265h127v-228q0 -76 -11.5 -153.5t-28 -133t-33 -100.5t-27.5 -68l-12 -22h-102q-5 8 -12.5 23.5t-26.5 65.5t-34 102.5t-27 131t-12 154.5v228h126v-265q3 -71 11 -140z" />
    <glyph glyph-name="W" unicode="W" horiz-adv-x="555" 
d="M29 113q-2 13 -4 50v540h125v-556h66v556h125v-556h64v556h125v-540q-2 -41 -4 -50q-9 -46 -44 -82t-99 -36q-34 0 -60 12.5t-35 25.5l-10 13h-1q-3 -6 -10 -14.5t-33.5 -22.5t-60.5 -14q-64 0 -99.5 36t-44.5 82z" />
    <glyph glyph-name="X" unicode="X" horiz-adv-x="374" 
d="M351 706v-120q0 -139 -69 -228q69 -89 69 -228v-130h-127v136q-4 48 -12 87q-3 12 -8.5 28t-9.5 26l-5 10h-3q-17 -37 -23 -64q-4 -17 -7 -39t-4 -35l-1 -13v-136h-127v130q0 142 69 228q-69 86 -69 228v120h127v-133q3 -48 12 -87q3 -12 8.5 -28t10.5 -26l4 -10h3
q17 37 23 64l12 87v133h127z" />
    <glyph glyph-name="Y" unicode="Y" horiz-adv-x="362" 
d="M217 705h124v-274q0 -47 -25 -85.5t-66 -58.5v-287h-134v285q-43 19 -69 58.5t-26 87.5v274h127v-283h69v283z" />
    <glyph glyph-name="Z" unicode="Z" horiz-adv-x="352" 
d="M5 0l161 569h-146v131h317l-161 -561h161v-139h-332z" />
    <glyph glyph-name="bracketleft" unicode="[" horiz-adv-x="296" 
d="M268 -62h-240v788h239v-112h-101v-564h102v-112z" />
    <glyph glyph-name="backslash" unicode="\" horiz-adv-x="278" 
d="M-48 726h78l296 -740h-78z" />
    <glyph glyph-name="bracketright" unicode="]" horiz-adv-x="296" 
d="M268 -62h-240v112h102v564h-101v112h239v-788z" />
    <glyph glyph-name="asciicircum" unicode="^" horiz-adv-x="600" 
d="M189 347h-116l174 365h106l174 -365h-117l-110 248z" />
    <glyph glyph-name="underscore" unicode="_" horiz-adv-x="500" 
d="M500 -125h-500v50h500v-50z" />
    <glyph glyph-name="a" unicode="a" 
d="M345 557v-556h-129v144h-66v-144h-125v556q0 66 46.5 113t113.5 47q66 0 113 -47t47 -113zM217 284v282h-68v-282h68z" />
    <glyph glyph-name="b" unicode="b" horiz-adv-x="364" 
d="M180 0v144h34v138h-34v140h34v143h-64v-565h-125v706h156q46 0 79 -13.5t47.5 -32.5t22.5 -38t8 -32l1 -14v-157q0 -17 -9.5 -34.5t-19.5 -26.5l-9 -8q17 -8 26.5 -23.5t10.5 -26.5l2 -11v-1v-154q0 -5 -0.5 -14.5t-8.5 -32.5t-23 -40.5t-48.5 -32t-79.5 -14.5z" />
    <glyph glyph-name="c" unicode="c" horiz-adv-x="368" 
d="M217 139v143h127v-135q0 -67 -46.5 -113.5t-113.5 -46.5q-66 0 -112.5 46.5t-46.5 113.5v406q0 66 46.5 113t112.5 47q65 0 111.5 -45t48.5 -109v-138h-127v139h-65v-421h65z" />
    <glyph glyph-name="d" unicode="d" horiz-adv-x="365" 
d="M339 574l1 -439q0 -5 -0.5 -14.5t-8 -32.5t-22 -40.5t-48 -32t-80.5 -14.5h-156v706h175q39 0 68 -13.5t42 -33.5t20.5 -39.5t7.5 -32.5zM213 145v421h-63v-422z" />
    <glyph glyph-name="e" unicode="e" horiz-adv-x="371" 
d="M345 258v-111q0 -66 -46.5 -113t-113.5 -47q-66 0 -113 47t-47 113v406q0 66 47 113t113 47q65 0 111.5 -45t48.5 -109v-114h-127v115h-65v-143h96v-129h-96v-148h65v118h127z" />
    <glyph glyph-name="f" unicode="f" horiz-adv-x="359" 
d="M152 563v-143h96v-129h-96v-291h-127v556q0 66 46.5 113t113.5 47q64 0 111 -45t49 -109v-114h-128v115h-65z" />
    <glyph glyph-name="g" unicode="g" 
d="M345 414v-267q0 -66 -47 -113t-113 -47t-113 47t-47 113v406q0 66 47 113t113 47q64 0 111 -45t49 -109v-114h-128v115h-65v-420h65v145h-32v129h32h78h50z" />
    <glyph glyph-name="h" unicode="h" 
d="M25 707h124v-289h68v289h128v-706h-129v279h-66v-279h-125v706z" />
    <glyph glyph-name="i" unicode="i" horiz-adv-x="185" 
d="M25 0v706h135v-706h-135z" />
    <glyph glyph-name="j" unicode="j" horiz-adv-x="369" 
d="M216 705h128v-556q0 -66 -47 -113t-113 -47q-67 0 -113.5 47t-46.5 113v136h127v-143h65v563z" />
    <glyph glyph-name="k" unicode="k" horiz-adv-x="364" 
d="M301 352q16 -9 26 -24.5t11 -26.5l2 -11v-1v-289h-127v284h-63v-283h-125v706h125v-284h63v284h125v-287q0 -17 -9 -34t-19 -26z" />
    <glyph glyph-name="l" unicode="l" horiz-adv-x="308" 
d="M289 124v-124h-264v705h135v-581h129z" />
    <glyph glyph-name="m" unicode="m" horiz-adv-x="555" 
d="M526 596q2 -8 4 -50v-546h-125v562h-65v-562h-126v562h-63v-562h-126v546q2 42 4 50q9 46 44.5 82t99.5 36q33 0 59 -12.5t36 -25.5l9 -12h1q3 6 10 14t34 22t60 14q64 0 99.5 -36t44.5 -82z" />
    <glyph glyph-name="n" unicode="n" 
d="M345 556v-556h-128v565h-68v-565h-124v556q0 66 47 113t113 47t113 -47t47 -113z" />
    <glyph glyph-name="o" unicode="o" 
d="M185 713q66 0 113 -47t47 -113v-406q0 -66 -47 -113t-113 -47t-113 47t-47 113v406q0 66 47 113t113 47zM218 140v420h-65v-420h65z" />
    <glyph glyph-name="p" unicode="p" horiz-adv-x="362" 
d="M244 283h-65v139h34v143h-63v-565h-125v706h167q43 0 73.5 -13t44 -31t20.5 -36.5t8 -31.5v-13v-201q0 -27 -9.5 -47t-23.5 -29t-28 -14.5t-23 -5.5z" />
    <glyph glyph-name="q" unicode="q" horiz-adv-x="374" 
d="M392 48l-87 -94l-54 50q-30 -15 -66 -15q-66 0 -113 47t-47 113v406q0 66 47 113t113 47t113 -47t47 -113v-406q0 -24 -8 -50zM217 142v420h-64v-420h64z" />
    <glyph glyph-name="r" unicode="r" horiz-adv-x="364" 
d="M25 706h166q43 0 74.5 -13t44.5 -31t20.5 -36.5t7.5 -31.5v-13v-162q0 -17 -9 -34t-19 -25l-9 -9q16 -9 26 -24.5t11 -26.5l2 -11v-289h-127v283h-34v139h34v143h-63v-565h-125v706z" />
    <glyph glyph-name="s" unicode="s" horiz-adv-x="365" 
d="M151 473q0 -20 13 -36.5t25 -23.5t35 -19q63 -32 94 -60q11 -11 17.5 -27.5t6.5 -28.5l1 -11v-120q0 -66 -46.5 -113t-112.5 -47q-67 0 -113.5 47t-46.5 113v134h127v-141h65v98q1 18 -15 32q-22 20 -77 48q-28 13 -46.5 25t-36 39.5t-17.5 62.5v108q0 66 46.5 113
t113.5 47q66 0 112.5 -47t46.5 -113v-133h-127v140h-65v-87z" />
    <glyph glyph-name="t" unicode="t" horiz-adv-x="342" 
d="M326 704v-134h-89v-570h-134v570h-88v134h311z" />
    <glyph glyph-name="u" unicode="u" horiz-adv-x="369" 
d="M25 148v556h127v-565h68v565h124v-556q0 -66 -46.5 -113t-113.5 -47q-66 0 -112.5 47t-46.5 113z" />
    <glyph glyph-name="v" unicode="v" horiz-adv-x="377" 
d="M188 161h2q18 90 24 139q4 31 7 66t3 54l1 20v265h127v-228q0 -76 -11.5 -153.5t-28 -133t-33 -100.5t-27.5 -68l-12 -22h-102q-5 8 -12.5 23.5t-26.5 65.5t-34 102.5t-27 131t-12 154.5v228h126v-265q3 -71 11 -140z" />
    <glyph glyph-name="w" unicode="w" horiz-adv-x="555" 
d="M29 113q-2 13 -4 50v540h125v-556h66v556h125v-556h64v556h125v-540q-2 -41 -4 -50q-9 -46 -44 -82t-99 -36q-34 0 -60 12.5t-35 25.5l-10 13h-1q-3 -6 -10 -14.5t-33.5 -22.5t-60.5 -14q-64 0 -99.5 36t-44.5 82z" />
    <glyph glyph-name="x" unicode="x" horiz-adv-x="374" 
d="M351 706v-120q0 -139 -69 -228q69 -89 69 -228v-130h-127v136q-4 48 -12 87q-3 12 -8.5 28t-9.5 26l-5 10h-3q-17 -37 -23 -64q-4 -17 -7 -39t-4 -35l-1 -13v-136h-127v130q0 142 69 228q-69 86 -69 228v120h127v-133q3 -48 12 -87q3 -12 8.5 -28t10.5 -26l4 -10h3
q17 37 23 64l12 87v133h127z" />
    <glyph glyph-name="y" unicode="y" horiz-adv-x="362" 
d="M217 705h124v-274q0 -47 -25 -85.5t-66 -58.5v-287h-134v285q-43 19 -69 58.5t-26 87.5v274h127v-283h69v283z" />
    <glyph glyph-name="z" unicode="z" horiz-adv-x="352" 
d="M5 0l161 569h-146v131h317l-161 -561h161v-139h-332z" />
    <glyph glyph-name="braceleft" unicode="{" horiz-adv-x="333" 
d="M28 294v83q22 1 34.5 4t24 16.5t11.5 38.5v174q0 54 46 85t87 31h74v-76h-11q-25 0 -38.5 -9.5t-16.5 -20t-3 -25.5v-177q0 -23 -14 -39.5t-36.5 -25t-40.5 -12t-35 -4.5v-2q18 -2 27.5 -3t31 -6.5t34 -14t23 -25.5t10.5 -40v-178q0 -14 2.5 -24t16.5 -20t39 -10h11v-76
h-74q-41 0 -87 31t-46 85v181q0 25 -11.5 38.5t-24 16.5t-34.5 4z" />
    <glyph glyph-name="bar" unicode="|" horiz-adv-x="222" 
d="M43 -250v1000h136v-1000h-136z" />
    <glyph glyph-name="braceright" unicode="}" horiz-adv-x="333" 
d="M305 377v-83q-22 -1 -34.5 -4t-24 -16.5t-11.5 -38.5v-181q0 -54 -46 -85t-87 -31h-74v76h11q25 0 39 10t16.5 20t2.5 24v178q0 23 10.5 40t23 25.5t34 14t31 6.5t27.5 3v2q-17 1 -35 4.5t-40.5 12t-36.5 25t-14 39.5v177q0 15 -3 25.5t-16.5 20t-38.5 9.5h-11v76h74
q41 0 87 -31t46 -85v-174q0 -25 11.5 -38.5t24 -16.5t34.5 -4z" />
    <glyph glyph-name="asciitilde" unicode="~" horiz-adv-x="600" 
d="M495 346l36 -96q-20 -27 -33 -42t-38 -29.5t-54 -14.5q-42 0 -102 33q-62 35 -115 35q-51 0 -84 -72l-36 96q45 86 125 86q39 0 111 -32q7 -3 21.5 -9.5t23 -10t20 -8t20.5 -6.5t17 -2q19 0 36.5 12t27 24.5t24.5 35.5z" />
    <glyph glyph-name="copyright" unicode="&#xa9;" horiz-adv-x="800" 
d="M400 -14q-102 0 -189 42.5t-142.5 128.5t-55.5 199t55.5 199t142.5 128.5t189 42.5t189 -42.5t142.5 -128.5t55.5 -199t-55.5 -199t-142.5 -128.5t-189 -42.5zM664 356q0 122 -77 200t-187 78q-112 0 -188 -78t-76 -200t76.5 -200t187.5 -78q110 0 187 78.5t77 199.5z
M499 302h95q-11 -74 -61 -114.5t-118 -40.5q-92 0 -149 60.5t-57 151.5q0 94 55.5 154t148.5 60q70 0 117.5 -39.5t59.5 -113.5h-91q-2 32 -25 47.5t-59 15.5q-42 -2 -68 -35t-26 -87q0 -52 26 -87t68 -35q36 0 59 15.5t25 47.5z" />
    <glyph glyph-name="registered" unicode="&#xae;" horiz-adv-x="800" 
d="M400 -14q-159 0 -273 100.5t-114 268.5q0 113 55.5 199.5t142.5 129t189 42.5q76 0 145 -25.5t123 -71.5t86.5 -117.5t32.5 -156.5q0 -168 -114.5 -268.5t-272.5 -100.5zM664 355q0 122 -77 200.5t-187 78.5q-111 0 -187.5 -78.5t-76.5 -200.5t76 -199.5t188 -77.5
q110 0 187 78t77 199zM340 323v-167h-93v400h152q85 0 127.5 -27t42.5 -95q0 -54 -28.5 -78t-84.5 -27l103 -173h-93l-92 167h-34zM340 395h78q28 0 41 9.5t13 34.5t-13 34.5t-41 9.5l-78 1v-89z" />
    <glyph glyph-name="quoteleft" unicode="&#x2018;" horiz-adv-x="182" 
d="M158 639v-139h-135v139l94 69h13l-19 -69h47z" />
    <glyph glyph-name="quoteright" unicode="&#x2019;" horiz-adv-x="182" 
d="M24 563v139h135v-139l-94 -69h-13l19 69h-47z" />
    <glyph glyph-name="quotesinglbase" unicode="&#x201a;" horiz-adv-x="833" 
 />
    <glyph glyph-name="quotedblleft" unicode="&#x201c;" horiz-adv-x="348" 
d="M160 702v-139h-47l19 -69h-14l-93 69v139h135zM187 702h135v-139h-47l19 -69h-14l-93 69v139z" />
    <glyph glyph-name="quotedblright" unicode="&#x201d;" horiz-adv-x="344" 
d="M24 563v139h135v-139l-94 -69h-13l19 69h-47zM184 563v139h135v-139l-94 -69h-13l19 69h-47z" />
  </font>
</defs>
</svg>
